<svg width="16" height="16" viewBox="0 0 16 16" fill="none" xmlns="http://www.w3.org/2000/svg">
<rect width="16" height="16" fill="white"/>
<path fill-rule="evenodd" clip-rule="evenodd" d="M9.24643 9.88082C9.59425 9.75623 9.95578 9.70929 10.3021 9.8027L10.431 9.84371C10.7254 9.95294 10.9847 10.1615 11.0921 10.5068L11.1214 10.6103C11.1641 10.7841 11.174 10.9608 11.1527 11.1367L11.1117 11.3476C11.0226 11.6822 10.8385 11.9967 10.5931 12.2929L10.5941 12.2939C10.3574 12.5854 10.0845 12.8506 9.7767 13.0879L9.77279 13.0898C9.5445 13.263 9.31341 13.4109 9.07943 13.5302L8.84408 13.6396L8.8392 13.6425C8.55998 13.7573 8.25745 13.8262 7.96127 13.7812L7.83432 13.7548C7.47714 13.6584 7.11747 13.4534 6.97006 13.0478C6.86884 12.7692 6.85353 12.4787 6.93002 12.1914L6.96908 12.0615C7.06848 11.7603 7.23003 11.476 7.44174 11.2089L7.44369 11.206L7.62924 10.9892C7.82207 10.7783 8.03549 10.5856 8.26791 10.4121L8.50814 10.2461C8.74759 10.092 8.99384 9.9686 9.24643 9.88082ZM10.0326 10.7988C9.95023 10.7767 9.81315 10.7744 9.59506 10.8525L9.5892 10.8545C9.36492 10.9318 9.12962 11.0577 8.88412 11.2402C8.6442 11.4194 8.43215 11.6216 8.24936 11.8486L8.25033 11.8496C8.12251 12.0108 8.03287 12.1655 7.97494 12.3125L7.92709 12.457C7.90713 12.5321 7.90833 12.6048 7.93686 12.6875C7.93819 12.6886 7.94003 12.6903 7.94272 12.6923C7.96147 12.7064 8.00829 12.7332 8.10287 12.7587L8.13803 12.7636C8.18706 12.7655 8.28188 12.7545 8.43979 12.6904C8.60711 12.6193 8.78332 12.5234 8.96518 12.4004L9.14975 12.2675C9.39611 12.0773 9.61031 11.8689 9.7933 11.6435L9.79721 11.6396L9.91732 11.4814C10.0224 11.3301 10.0841 11.1967 10.1146 11.082L10.1283 11.0146C10.1363 10.951 10.13 10.8912 10.1117 10.831L10.0326 10.7988Z" fill="black"/>
<path fill-rule="evenodd" clip-rule="evenodd" d="M11.0081 0.272422L11.1449 0.307579L12.8138 0.906211L12.8978 0.942344C13.2748 1.12815 13.438 1.58056 13.2728 1.96383L13.2318 2.04488L12.7953 2.80465C13.2445 3.14746 13.6396 3.51904 13.9759 3.92184L14.1771 4.17477C14.6294 4.76898 14.9599 5.40259 15.1624 6.07418C15.3952 6.8357 15.4606 7.61517 15.3578 8.40621V8.40816C15.344 8.51079 15.3272 8.61396 15.3079 8.71578L15.2415 9.01949C15.0699 9.71972 14.5919 10.2372 14.0355 10.5693C13.8913 11.0745 13.693 11.5655 13.4408 12.041L13.3128 12.2734C12.8914 13.0082 12.3501 13.6489 11.6927 14.1933L11.6898 14.1962C11.0261 14.7377 10.2866 15.1462 9.47592 15.4199L9.47104 15.4218C8.65006 15.6893 7.79791 15.7859 6.91928 15.7148H6.91439C6.12851 15.6435 5.36054 15.4103 4.61361 15.0234L4.29428 14.8476C3.56443 14.4234 2.94986 13.9105 2.45834 13.3066L2.25522 13.042C1.74103 12.332 1.38854 11.5588 1.20346 10.7255L1.20443 10.7246C1.01564 9.89439 0.989969 9.049 1.12729 8.19332C1.26266 7.328 1.55829 6.49969 2.0101 5.71188L2.14779 5.48043C2.43073 5.01936 2.74549 4.59818 3.09408 4.22066C3.07748 3.62388 3.22485 2.98517 3.6683 2.48238L3.79818 2.34176C4.10458 2.02182 4.4471 1.75587 4.82553 1.54879L5.09408 1.41207C5.7267 1.11201 6.40692 0.946614 7.12924 0.915L7.431 0.907188C8.13569 0.903397 8.84435 1.00192 9.55502 1.20113C9.64911 1.22735 9.74147 1.25629 9.83432 1.28512L10.1947 0.658165L10.2757 0.54293C10.4543 0.330512 10.7333 0.226498 11.0081 0.272422ZM3.72201 5.06832C3.5206 5.30016 3.3304 5.55141 3.15268 5.82223L2.90561 6.22457C2.51309 6.90894 2.2607 7.61872 2.14584 8.35445V8.35738C2.04349 8.99531 2.0473 9.62078 2.15658 10.2353L2.21029 10.499L2.21127 10.5019L2.27475 10.7587C2.43932 11.353 2.7108 11.9123 3.09115 12.4375L3.25814 12.6543C3.66383 13.1528 4.17941 13.5879 4.81283 13.956L5.08725 14.1064C5.72553 14.4372 6.36289 14.6277 7.00131 14.6865C7.74785 14.747 8.46403 14.6644 9.1517 14.4404C9.84293 14.2063 10.471 13.8586 11.0374 13.3964C11.5994 12.9306 12.0586 12.3852 12.4173 11.7597L12.5296 11.5576C12.7185 11.2017 12.8688 10.8374 12.9867 10.4668L3.72201 5.06832ZM10.5208 2.16402C10.3964 2.38091 10.1341 2.47793 9.89877 2.39352C9.79734 2.35702 9.69451 2.32195 9.59115 2.28902L9.27768 2.19527C8.56541 1.9956 7.86536 1.91389 7.17807 1.94625H7.17611C6.58639 1.9719 6.04058 2.10499 5.53549 2.34469L5.32064 2.45406C5.07965 2.58595 4.85452 2.7516 4.64584 2.95211L4.44272 3.165C4.2337 3.40196 4.12961 3.73221 4.12631 4.11031L13.5951 9.62691C13.9255 9.40686 14.1563 9.11412 14.2396 8.77437L14.2943 8.5234C14.31 8.44051 14.3231 8.35681 14.3343 8.2734L14.3597 8.03219C14.4033 7.47036 14.3421 6.91904 14.1761 6.37594V6.37398C14.0125 5.8305 13.7413 5.30504 13.3558 4.79879L13.1839 4.58297C12.8229 4.15064 12.372 3.74849 11.8275 3.37789C11.6047 3.22621 11.5362 2.92809 11.6703 2.6943L12.1937 1.78023L10.9886 1.34762L10.5208 2.16402Z" fill="black"/>
</svg>
